<svg width="389" height="92" viewBox="0 0 389 92" fill="none" xmlns="http://www.w3.org/2000/svg">
<path d="M96.868 25.88C97.516 26.048 98.08 26.33 98.56 26.726C99.04 27.122 99.46 27.662 99.82 28.346L101.728 32H99.982L98.272 28.832C97.936 28.22 97.594 27.758 97.246 27.446C96.898 27.122 96.49 26.9 96.022 26.78C95.566 26.648 94.984 26.582 94.276 26.582V32H92.512V20.318H94.276V25.358C94.996 25.358 95.554 25.292 95.95 25.16C96.346 25.016 96.706 24.71 97.03 24.242L99.82 20.318H101.728L98.398 24.692C97.954 25.268 97.444 25.664 96.868 25.88ZM103.32 23.288H104.94V24.224C105.072 23.48 106.062 23.108 107.91 23.108C109.014 23.108 109.848 23.342 110.412 23.81C110.976 24.266 111.258 24.854 111.258 25.574V29.156C111.258 29.672 111.18 30.122 111.024 30.506C110.88 30.89 110.688 31.19 110.448 31.406C110.232 31.61 109.932 31.772 109.548 31.892C109.176 32.012 108.804 32.09 108.432 32.126C108.096 32.162 107.688 32.18 107.208 32.18C106.68 32.18 106.194 32.12 105.75 32C105.318 31.868 105.048 31.682 104.94 31.442V35.564H103.32V23.288ZM107.244 31.082C107.868 31.082 108.342 31.04 108.666 30.956C109.002 30.86 109.242 30.692 109.386 30.452C109.53 30.212 109.602 29.846 109.602 29.354V26.15C109.602 25.61 109.53 25.208 109.386 24.944C109.242 24.68 109.002 24.506 108.666 24.422C108.342 24.326 107.862 24.278 107.226 24.278C106.59 24.278 106.104 24.326 105.768 24.422C105.444 24.506 105.21 24.68 105.066 24.944C104.922 25.208 104.85 25.61 104.85 26.15V29.354C104.85 29.834 104.922 30.2 105.066 30.452C105.222 30.692 105.468 30.86 105.804 30.956C106.14 31.04 106.62 31.082 107.244 31.082ZM113.744 23.288H115.4V26.438H117.092C117.836 26.438 118.424 26.492 118.856 26.6C119.3 26.708 119.624 26.9 119.828 27.176C120.032 27.44 120.134 27.818 120.134 28.31V30.11C120.134 31.37 119.072 32 116.948 32H113.744V23.288ZM121.52 23.288H123.14V32H121.52V23.288ZM116.84 30.956C117.188 30.956 117.548 30.908 117.92 30.812C118.34 30.704 118.55 30.398 118.55 29.894V28.796C118.55 28.448 118.502 28.184 118.406 28.004C118.322 27.824 118.16 27.698 117.92 27.626C117.692 27.554 117.344 27.518 116.876 27.518H115.382V30.956H116.84ZM126.051 23.288H128.661L131.307 30.38H131.379L133.845 23.288H136.365V32H134.871V24.764H134.781L132.099 32H130.461L127.671 24.764H127.581V32H126.051V23.288ZM142.795 32.18C142.195 32.18 141.757 32.168 141.481 32.144C141.217 32.12 140.911 32.06 140.563 31.964C140.191 31.868 139.903 31.724 139.699 31.532C139.495 31.34 139.321 31.058 139.177 30.686C139.033 30.326 138.961 29.876 138.961 29.336V26.132C138.961 25.16 139.147 24.464 139.519 24.044C139.723 23.804 139.927 23.624 140.131 23.504C140.347 23.372 140.623 23.282 140.959 23.234C141.295 23.186 141.595 23.156 141.859 23.144C142.123 23.12 142.495 23.108 142.975 23.108C143.803 23.108 144.631 23.198 145.459 23.378V24.566C144.499 24.326 143.605 24.206 142.777 24.206C142.153 24.206 141.691 24.254 141.391 24.35C141.103 24.434 140.899 24.596 140.779 24.836C140.671 25.064 140.617 25.418 140.617 25.898V29.462C140.617 29.906 140.677 30.236 140.797 30.452C140.929 30.668 141.157 30.824 141.481 30.92C141.817 31.004 142.309 31.046 142.957 31.046C143.833 31.046 144.709 30.932 145.585 30.704V31.928C144.769 32.096 143.839 32.18 142.795 32.18ZM147.616 23.288H149.236V27.05C149.416 27.05 149.56 27.014 149.668 26.942C149.788 26.858 149.932 26.732 150.1 26.564L153.124 23.288H155.104L151.144 27.41C151.3 27.446 151.522 27.608 151.81 27.896C152.11 28.184 152.548 28.652 153.124 29.3L155.554 32H153.556L151.18 29.3C150.856 28.928 150.538 28.634 150.226 28.418C149.986 28.262 149.818 28.172 149.722 28.148C149.626 28.112 149.53 28.094 149.434 28.094C149.338 28.094 149.272 28.094 149.236 28.094V32H147.616V23.288ZM164.446 23.288V32H162.826V25.574L158.29 32H156.67V23.288H158.29V29.93L162.916 23.288H164.446ZM175.028 23.288V32H173.408V25.574L168.872 32H167.252V23.288H168.872V29.93L173.498 23.288H175.028ZM171.14 22.046C170.336 22.046 169.7 21.842 169.232 21.434C168.764 21.014 168.512 20.456 168.476 19.76H169.808C169.892 20.696 170.336 21.164 171.14 21.164C171.932 21.164 172.376 20.696 172.472 19.76H173.804C173.78 20.444 173.528 20.996 173.048 21.416C172.58 21.836 171.944 22.046 171.14 22.046ZM100.18 44.288V53H98.56V46.574L94.024 53H92.404V44.288H94.024V50.93L98.65 44.288H100.18ZM102.986 44.288H104.606V47.906H108.89V44.288H110.51V53H108.89V49.094H104.606V53H102.986V44.288ZM114.06 50.3C114.636 49.652 115.068 49.184 115.356 48.896C115.656 48.608 115.884 48.446 116.04 48.41L112.08 44.288H114.06L116.724 47.564C116.976 47.888 117.384 48.05 117.948 48.05V44.288H119.442V48.05C120.006 48.05 120.414 47.888 120.666 47.564L123.33 44.288H125.31L121.35 48.41C121.506 48.446 121.728 48.608 122.016 48.896C122.316 49.184 122.754 49.652 123.33 50.3L125.76 53H123.762L121.386 50.3C121.062 49.928 120.744 49.634 120.432 49.418C120.204 49.262 120.042 49.166 119.946 49.13C119.85 49.094 119.754 49.082 119.658 49.094C119.562 49.094 119.49 49.094 119.442 49.094V53H117.948V49.094C117.9 49.094 117.822 49.094 117.714 49.094C117.606 49.082 117.498 49.1 117.39 49.148C117.282 49.196 117.138 49.286 116.958 49.418C116.646 49.634 116.328 49.928 116.004 50.3L113.628 53H111.63L114.06 50.3ZM130.547 53.18C127.883 53.18 126.551 52.292 126.551 50.516V47.078C126.551 46.022 126.851 45.266 127.451 44.81C128.063 44.342 129.047 44.108 130.403 44.108C131.687 44.108 132.611 44.33 133.175 44.774C133.751 45.218 134.039 45.986 134.039 47.078V49.004H128.189V50.318C128.189 50.918 128.399 51.35 128.819 51.614C129.239 51.878 129.887 52.01 130.763 52.01C131.591 52.01 132.569 51.866 133.697 51.578V52.82C132.593 53.06 131.543 53.18 130.547 53.18ZM132.419 47.942V46.574C132.419 46.046 132.257 45.686 131.933 45.494C131.621 45.29 131.081 45.188 130.313 45.188C129.569 45.188 129.029 45.29 128.693 45.494C128.357 45.686 128.189 46.046 128.189 46.574V47.942H132.419ZM136.508 44.288H138.128V47.906H142.412V44.288H144.032V53H142.412V49.094H138.128V53H136.508V44.288ZM150.515 53.18C147.851 53.18 146.519 52.292 146.519 50.516V47.078C146.519 46.022 146.819 45.266 147.419 44.81C148.031 44.342 149.015 44.108 150.371 44.108C151.655 44.108 152.579 44.33 153.143 44.774C153.719 45.218 154.007 45.986 154.007 47.078V49.004H148.157V50.318C148.157 50.918 148.367 51.35 148.787 51.614C149.207 51.878 149.855 52.01 150.731 52.01C151.559 52.01 152.537 51.866 153.665 51.578V52.82C152.561 53.06 151.511 53.18 150.515 53.18ZM152.387 47.942V46.574C152.387 46.046 152.225 45.686 151.901 45.494C151.589 45.29 151.049 45.188 150.281 45.188C149.537 45.188 148.997 45.29 148.661 45.494C148.325 45.686 148.157 46.046 148.157 46.574V47.942H152.387ZM156.476 44.288H158.096V45.224C158.228 44.48 159.218 44.108 161.066 44.108C162.17 44.108 163.004 44.342 163.568 44.81C164.132 45.266 164.414 45.854 164.414 46.574V50.156C164.414 50.672 164.336 51.122 164.18 51.506C164.036 51.89 163.844 52.19 163.604 52.406C163.388 52.61 163.088 52.772 162.704 52.892C162.332 53.012 161.96 53.09 161.588 53.126C161.252 53.162 160.844 53.18 160.364 53.18C159.836 53.18 159.35 53.12 158.906 53C158.474 52.868 158.204 52.682 158.096 52.442V56.564H156.476V44.288ZM160.4 52.082C161.024 52.082 161.498 52.04 161.822 51.956C162.158 51.86 162.398 51.692 162.542 51.452C162.686 51.212 162.758 50.846 162.758 50.354V47.15C162.758 46.61 162.686 46.208 162.542 45.944C162.398 45.68 162.158 45.506 161.822 45.422C161.498 45.326 161.018 45.278 160.382 45.278C159.746 45.278 159.26 45.326 158.924 45.422C158.6 45.506 158.366 45.68 158.222 45.944C158.078 46.208 158.006 46.61 158.006 47.15V50.354C158.006 50.834 158.078 51.2 158.222 51.452C158.378 51.692 158.624 51.86 158.96 51.956C159.296 52.04 159.776 52.082 160.4 52.082ZM166.9 44.288H168.52V47.906H172.804V44.288H174.424V53H172.804V49.094H168.52V53H166.9V44.288ZM180.926 53.18C180.158 53.18 179.582 53.15 179.198 53.09C178.814 53.042 178.43 52.928 178.046 52.748C177.65 52.568 177.362 52.28 177.182 51.884C177.002 51.476 176.912 50.93 176.912 50.246V47.222C176.912 46.682 176.978 46.208 177.11 45.8C177.242 45.392 177.416 45.074 177.632 44.846C177.812 44.642 178.082 44.486 178.442 44.378C178.814 44.258 179.192 44.18 179.576 44.144C180.008 44.12 180.458 44.108 180.926 44.108C181.55 44.108 182.018 44.126 182.33 44.162C182.654 44.186 182.996 44.246 183.356 44.342C183.728 44.45 184.016 44.612 184.22 44.828C184.424 45.044 184.598 45.356 184.742 45.764C184.874 46.184 184.94 46.67 184.94 47.222V50.246C184.94 51.266 184.706 52.01 184.238 52.478C184.046 52.67 183.77 52.82 183.41 52.928C183.05 53.036 182.678 53.108 182.294 53.144C181.838 53.168 181.382 53.18 180.926 53.18ZM180.926 52.118C181.43 52.118 181.796 52.106 182.024 52.082C182.252 52.058 182.474 51.992 182.69 51.884C182.906 51.788 183.056 51.632 183.14 51.416C183.236 51.188 183.284 50.876 183.284 50.48V46.952C183.284 46.412 183.218 46.022 183.086 45.782C182.954 45.53 182.726 45.368 182.402 45.296C182.09 45.212 181.598 45.17 180.926 45.17C180.254 45.17 179.756 45.212 179.432 45.296C179.12 45.368 178.898 45.53 178.766 45.782C178.634 46.022 178.568 46.412 178.568 46.952V50.48C178.568 50.876 178.61 51.188 178.694 51.416C178.79 51.632 178.946 51.788 179.162 51.884C179.378 51.992 179.6 52.058 179.828 52.082C180.056 52.106 180.422 52.118 180.926 52.118ZM186.783 47.204H191.787V48.5H186.783V47.204ZM194.026 44.288H201.388V53H199.768V45.476H195.646V53H194.026V44.288ZM207.978 53.18C205.314 53.18 203.982 52.292 203.982 50.516V47.078C203.982 46.022 204.282 45.266 204.882 44.81C205.494 44.342 206.478 44.108 207.834 44.108C209.118 44.108 210.042 44.33 210.606 44.774C211.182 45.218 211.47 45.986 211.47 47.078V49.004H205.62V50.318C205.62 50.918 205.83 51.35 206.25 51.614C206.67 51.878 207.318 52.01 208.194 52.01C209.022 52.01 210 51.866 211.128 51.578V52.82C210.024 53.06 208.974 53.18 207.978 53.18ZM209.85 47.942V46.574C209.85 46.046 209.688 45.686 209.364 45.494C209.052 45.29 208.512 45.188 207.744 45.188C207 45.188 206.46 45.29 206.124 45.494C205.788 45.686 205.62 46.046 205.62 46.574V47.942H209.85ZM222.201 51.938V55.412H220.815V53H214.101V55.412H212.715V51.938H213.273C213.537 51.938 213.795 51.74 214.047 51.344C214.299 50.936 214.509 50.288 214.677 49.4C214.845 48.5 214.929 47.36 214.929 45.98V44.288H220.977V51.938H222.201ZM219.357 51.938V45.35H216.351V46.61C216.351 47.858 216.267 48.932 216.099 49.832C215.943 50.72 215.649 51.422 215.217 51.938H219.357ZM226.834 53.18C226.006 53.18 225.364 53.102 224.908 52.946C224.464 52.79 224.14 52.514 223.936 52.118C223.744 51.722 223.648 51.152 223.648 50.408C223.648 49.748 223.738 49.238 223.918 48.878C224.11 48.506 224.428 48.242 224.872 48.086C225.328 47.93 225.97 47.852 226.798 47.852H229.408V46.466C229.408 46.142 229.342 45.896 229.21 45.728C229.09 45.548 228.88 45.422 228.58 45.35C228.292 45.278 227.866 45.242 227.302 45.242C226.402 45.242 225.406 45.314 224.314 45.458V44.27C225.502 44.162 226.576 44.108 227.536 44.108C228.544 44.108 229.288 44.186 229.768 44.342C230.248 44.486 230.578 44.744 230.758 45.116C230.938 45.488 231.028 46.064 231.028 46.844V53H229.462V52.172C229.33 52.844 228.454 53.18 226.834 53.18ZM227.104 52.118C227.692 52.118 228.19 52.076 228.598 51.992C229.138 51.884 229.408 51.632 229.408 51.236V48.86H226.906C226.39 48.86 226.018 48.902 225.79 48.986C225.562 49.058 225.412 49.202 225.34 49.418C225.268 49.634 225.232 49.982 225.232 50.462C225.232 50.894 225.274 51.23 225.358 51.47C225.442 51.698 225.592 51.866 225.808 51.974C226.024 52.07 226.348 52.118 226.78 52.118H227.104ZM233.946 44.288H239.634V45.476H235.566V53H233.946V44.288ZM245.086 53.18C244.318 53.18 243.742 53.15 243.358 53.09C242.974 53.042 242.59 52.928 242.206 52.748C241.81 52.568 241.522 52.28 241.342 51.884C241.162 51.476 241.072 50.93 241.072 50.246V47.222C241.072 46.682 241.138 46.208 241.27 45.8C241.402 45.392 241.576 45.074 241.792 44.846C241.972 44.642 242.242 44.486 242.602 44.378C242.974 44.258 243.352 44.18 243.736 44.144C244.168 44.12 244.618 44.108 245.086 44.108C245.71 44.108 246.178 44.126 246.49 44.162C246.814 44.186 247.156 44.246 247.516 44.342C247.888 44.45 248.176 44.612 248.38 44.828C248.584 45.044 248.758 45.356 248.902 45.764C249.034 46.184 249.1 46.67 249.1 47.222V50.246C249.1 51.266 248.866 52.01 248.398 52.478C248.206 52.67 247.93 52.82 247.57 52.928C247.21 53.036 246.838 53.108 246.454 53.144C245.998 53.168 245.542 53.18 245.086 53.18ZM245.086 52.118C245.59 52.118 245.956 52.106 246.184 52.082C246.412 52.058 246.634 51.992 246.85 51.884C247.066 51.788 247.216 51.632 247.3 51.416C247.396 51.188 247.444 50.876 247.444 50.48V46.952C247.444 46.412 247.378 46.022 247.246 45.782C247.114 45.53 246.886 45.368 246.562 45.296C246.25 45.212 245.758 45.17 245.086 45.17C244.414 45.17 243.916 45.212 243.592 45.296C243.28 45.368 243.058 45.53 242.926 45.782C242.794 46.022 242.728 46.412 242.728 46.952V50.48C242.728 50.876 242.77 51.188 242.854 51.416C242.95 51.632 243.106 51.788 243.322 51.884C243.538 51.992 243.76 52.058 243.988 52.082C244.216 52.106 244.582 52.118 245.086 52.118ZM251.735 44.288H257.423V45.476H253.355V53H251.735V44.288ZM266.961 44.288V53H265.341V46.574L260.805 53H259.185V44.288H260.805V50.93L265.431 44.288H266.961ZM275.653 49.076C275.497 49.904 274.543 50.318 272.791 50.318C271.675 50.318 270.889 50.12 270.433 49.724C269.989 49.316 269.767 48.68 269.767 47.816V44.288H271.387V47.708C271.387 48.26 271.531 48.638 271.819 48.842C272.107 49.046 272.587 49.148 273.259 49.148C273.919 49.148 274.417 49.106 274.753 49.022C275.101 48.926 275.335 48.776 275.455 48.572C275.587 48.368 275.653 48.08 275.653 47.708V44.288H277.273V53H275.653V49.076ZM283.758 53.18C281.094 53.18 279.762 52.292 279.762 50.516V47.078C279.762 46.022 280.062 45.266 280.662 44.81C281.274 44.342 282.258 44.108 283.614 44.108C284.898 44.108 285.822 44.33 286.386 44.774C286.962 45.218 287.25 45.986 287.25 47.078V49.004H281.4V50.318C281.4 50.918 281.61 51.35 282.03 51.614C282.45 51.878 283.098 52.01 283.974 52.01C284.802 52.01 285.78 51.866 286.908 51.578V52.82C285.804 53.06 284.754 53.18 283.758 53.18ZM285.63 47.942V46.574C285.63 46.046 285.468 45.686 285.144 45.494C284.832 45.29 284.292 45.188 283.524 45.188C282.78 45.188 282.24 45.29 281.904 45.494C281.568 45.686 281.4 46.046 281.4 46.574V47.942H285.63ZM293.228 53.18C292.628 53.18 292.19 53.168 291.914 53.144C291.65 53.12 291.344 53.06 290.996 52.964C290.624 52.868 290.336 52.724 290.132 52.532C289.928 52.34 289.754 52.058 289.61 51.686C289.466 51.326 289.394 50.876 289.394 50.336V47.132C289.394 46.16 289.58 45.464 289.952 45.044C290.156 44.804 290.36 44.624 290.564 44.504C290.78 44.372 291.056 44.282 291.392 44.234C291.728 44.186 292.028 44.156 292.292 44.144C292.556 44.12 292.928 44.108 293.408 44.108C294.236 44.108 295.064 44.198 295.892 44.378V45.566C294.932 45.326 294.038 45.206 293.21 45.206C292.586 45.206 292.124 45.254 291.824 45.35C291.536 45.434 291.332 45.596 291.212 45.836C291.104 46.064 291.05 46.418 291.05 46.898V50.462C291.05 50.906 291.11 51.236 291.23 51.452C291.362 51.668 291.59 51.824 291.914 51.92C292.25 52.004 292.742 52.046 293.39 52.046C294.266 52.046 295.142 51.932 296.018 51.704V52.928C295.202 53.096 294.272 53.18 293.228 53.18ZM298.05 44.288H299.67V48.05C299.85 48.05 299.994 48.014 300.102 47.942C300.222 47.858 300.366 47.732 300.534 47.564L303.558 44.288H305.538L301.578 48.41C301.734 48.446 301.956 48.608 302.244 48.896C302.544 49.184 302.982 49.652 303.558 50.3L305.988 53H303.99L301.614 50.3C301.29 49.928 300.972 49.634 300.66 49.418C300.42 49.262 300.252 49.172 300.156 49.148C300.06 49.112 299.964 49.094 299.868 49.094C299.772 49.094 299.706 49.094 299.67 49.094V53H298.05V44.288ZM314.879 44.288V53H313.259V46.574L308.723 53H307.103V44.288H308.723V50.93L313.349 44.288H314.879ZM325.461 44.288V53H323.841V46.574L319.305 53H317.685V44.288H319.305V50.93L323.931 44.288H325.461ZM321.573 43.046C320.769 43.046 320.133 42.842 319.665 42.434C319.197 42.014 318.945 41.456 318.909 40.76H320.241C320.325 41.696 320.769 42.164 321.573 42.164C322.365 42.164 322.809 41.696 322.905 40.76H324.237C324.213 41.444 323.961 41.996 323.481 42.416C323.013 42.836 322.377 43.046 321.573 43.046ZM94.474 74.126L91.108 65.288H92.872L95.302 72.398H95.338L97.534 65.288H99.172L94.798 77.744H93.106L94.474 74.126ZM100.683 65.288H102.303V68.906H106.587V65.288H108.207V74H106.587V70.094H102.303V74H100.683V65.288ZM118.795 65.288V74H117.175V67.574L112.639 74H111.019V65.288H112.639V71.93L117.265 65.288H118.795ZM121.709 65.288H125.525C126.305 65.288 126.929 65.336 127.397 65.432C127.865 65.516 128.207 65.666 128.423 65.882C128.627 66.086 128.759 66.296 128.819 66.512C128.879 66.728 128.909 67.028 128.909 67.412V67.718C128.909 68.186 128.789 68.534 128.549 68.762C128.309 68.99 127.907 69.164 127.343 69.284V69.356C128.735 69.596 129.431 70.202 129.431 71.174V71.696C129.431 72.284 129.311 72.746 129.071 73.082C128.843 73.406 128.459 73.64 127.919 73.784C127.379 73.928 126.623 74 125.651 74H121.709V65.288ZM125.669 68.96C126.149 68.96 126.509 68.924 126.749 68.852C126.989 68.768 127.151 68.642 127.235 68.474C127.319 68.294 127.361 68.024 127.361 67.664V67.556C127.361 67.232 127.313 66.992 127.217 66.836C127.133 66.68 126.965 66.572 126.713 66.512C126.473 66.44 126.107 66.404 125.615 66.404H123.329V68.96H125.669ZM125.741 72.83C126.305 72.83 126.731 72.794 127.019 72.722C127.307 72.65 127.505 72.536 127.613 72.38C127.721 72.212 127.775 71.966 127.775 71.642V71.066C127.775 70.766 127.649 70.514 127.397 70.31C127.133 70.118 126.611 70.022 125.831 70.022H123.329V72.83H125.741ZM135.592 74.18C132.928 74.18 131.596 73.292 131.596 71.516V68.078C131.596 67.022 131.896 66.266 132.496 65.81C133.108 65.342 134.092 65.108 135.448 65.108C136.732 65.108 137.656 65.33 138.22 65.774C138.796 66.218 139.084 66.986 139.084 68.078V70.004H133.234V71.318C133.234 71.918 133.444 72.35 133.864 72.614C134.284 72.878 134.932 73.01 135.808 73.01C136.636 73.01 137.614 72.866 138.742 72.578V73.82C137.638 74.06 136.588 74.18 135.592 74.18ZM137.464 68.942V67.574C137.464 67.046 137.302 66.686 136.978 66.494C136.666 66.29 136.126 66.188 135.358 66.188C134.614 66.188 134.074 66.29 133.738 66.494C133.402 66.686 133.234 67.046 133.234 67.574V68.942H137.464ZM141.552 65.288H143.172V66.224C143.304 65.48 144.294 65.108 146.142 65.108C147.246 65.108 148.08 65.342 148.644 65.81C149.208 66.266 149.49 66.854 149.49 67.574V71.156C149.49 71.672 149.412 72.122 149.256 72.506C149.112 72.89 148.92 73.19 148.68 73.406C148.464 73.61 148.164 73.772 147.78 73.892C147.408 74.012 147.036 74.09 146.664 74.126C146.328 74.162 145.92 74.18 145.44 74.18C144.912 74.18 144.426 74.12 143.982 74C143.55 73.868 143.28 73.682 143.172 73.442V77.564H141.552V65.288ZM145.476 73.082C146.1 73.082 146.574 73.04 146.898 72.956C147.234 72.86 147.474 72.692 147.618 72.452C147.762 72.212 147.834 71.846 147.834 71.354V68.15C147.834 67.61 147.762 67.208 147.618 66.944C147.474 66.68 147.234 66.506 146.898 66.422C146.574 66.326 146.094 66.278 145.458 66.278C144.822 66.278 144.336 66.326 144 66.422C143.676 66.506 143.442 66.68 143.298 66.944C143.154 67.208 143.082 67.61 143.082 68.15V71.354C143.082 71.834 143.154 72.2 143.298 72.452C143.454 72.692 143.7 72.86 144.036 72.956C144.372 73.04 144.852 73.082 145.476 73.082ZM155.486 74.18C154.886 74.18 154.448 74.168 154.172 74.144C153.908 74.12 153.602 74.06 153.254 73.964C152.882 73.868 152.594 73.724 152.39 73.532C152.186 73.34 152.012 73.058 151.868 72.686C151.724 72.326 151.652 71.876 151.652 71.336V68.132C151.652 67.16 151.838 66.464 152.21 66.044C152.414 65.804 152.618 65.624 152.822 65.504C153.038 65.372 153.314 65.282 153.65 65.234C153.986 65.186 154.286 65.156 154.55 65.144C154.814 65.12 155.186 65.108 155.666 65.108C156.494 65.108 157.322 65.198 158.15 65.378V66.566C157.19 66.326 156.296 66.206 155.468 66.206C154.844 66.206 154.382 66.254 154.082 66.35C153.794 66.434 153.59 66.596 153.47 66.836C153.362 67.064 153.308 67.418 153.308 67.898V71.462C153.308 71.906 153.368 72.236 153.488 72.452C153.62 72.668 153.848 72.824 154.172 72.92C154.508 73.004 155 73.046 155.648 73.046C156.524 73.046 157.4 72.932 158.276 72.704V73.928C157.46 74.096 156.53 74.18 155.486 74.18ZM168.102 65.288V74H166.482V67.574L161.946 74H160.326V65.288H161.946V71.93L166.572 65.288H168.102ZM173.104 66.476H170.044V65.288H177.766V66.476H174.724V74H173.104V66.476ZM183.387 74.18C180.723 74.18 179.391 73.292 179.391 71.516V68.078C179.391 67.022 179.691 66.266 180.291 65.81C180.903 65.342 181.887 65.108 183.243 65.108C184.527 65.108 185.451 65.33 186.015 65.774C186.591 66.218 186.879 66.986 186.879 68.078V70.004H181.029V71.318C181.029 71.918 181.239 72.35 181.659 72.614C182.079 72.878 182.727 73.01 183.603 73.01C184.431 73.01 185.409 72.866 186.537 72.578V73.82C185.433 74.06 184.383 74.18 183.387 74.18ZM185.259 68.942V67.574C185.259 67.046 185.097 66.686 184.773 66.494C184.461 66.29 183.921 66.188 183.153 66.188C182.409 66.188 181.869 66.29 181.533 66.494C181.197 66.686 181.029 67.046 181.029 67.574V68.942H185.259ZM191.543 66.476H188.483V65.288H196.205V66.476H193.163V74H191.543V66.476ZM210.078 65.288V74H208.458V67.574L203.922 74H202.302V65.288H203.922V71.93L208.548 65.288H210.078ZM212.992 65.288H215.602L218.248 72.38H218.32L220.786 65.288H223.306V74H221.812V66.764H221.722L219.04 74H217.402L214.612 66.764H214.522V74H212.992V65.288ZM229.898 74.18C227.234 74.18 225.902 73.292 225.902 71.516V68.078C225.902 67.022 226.202 66.266 226.802 65.81C227.414 65.342 228.398 65.108 229.754 65.108C231.038 65.108 231.962 65.33 232.526 65.774C233.102 66.218 233.39 66.986 233.39 68.078V70.004H227.54V71.318C227.54 71.918 227.75 72.35 228.17 72.614C228.59 72.878 229.238 73.01 230.114 73.01C230.942 73.01 231.92 72.866 233.048 72.578V73.82C231.944 74.06 230.894 74.18 229.898 74.18ZM231.77 68.942V67.574C231.77 67.046 231.608 66.686 231.284 66.494C230.972 66.29 230.432 66.188 229.664 66.188C228.92 66.188 228.38 66.29 228.044 66.494C227.708 66.686 227.54 67.046 227.54 67.574V68.942H231.77ZM235.859 65.288H237.479V68.906H241.763V65.288H243.383V74H241.763V70.094H237.479V74H235.859V65.288ZM253.971 65.288V74H252.351V67.574L247.815 74H246.195V65.288H247.815V71.93L252.441 65.288H253.971ZM267.423 62.732C270.747 62.732 272.391 63.848 272.355 66.08L272.319 69.626C272.355 70.682 271.959 71.474 271.131 72.002C270.315 72.53 269.079 72.794 267.423 72.794V74.36H265.677V72.794C262.365 72.794 260.709 71.738 260.709 69.626V66.08C260.709 63.848 262.365 62.732 265.677 62.732V61.418H267.423V62.732ZM262.383 69.608C262.383 70.952 263.481 71.624 265.677 71.624V63.866C264.621 63.866 263.805 64.028 263.229 64.352C262.665 64.676 262.383 65.234 262.383 66.026V69.608ZM267.423 71.624C269.619 71.624 270.717 70.952 270.717 69.608L270.699 66.026C270.711 65.234 270.429 64.676 269.853 64.352C269.289 64.028 268.479 63.866 267.423 63.866V71.624ZM278.625 74.18C275.961 74.18 274.629 73.292 274.629 71.516V68.078C274.629 67.022 274.929 66.266 275.529 65.81C276.141 65.342 277.125 65.108 278.481 65.108C279.765 65.108 280.689 65.33 281.253 65.774C281.829 66.218 282.117 66.986 282.117 68.078V70.004H276.267V71.318C276.267 71.918 276.477 72.35 276.897 72.614C277.317 72.878 277.965 73.01 278.841 73.01C279.669 73.01 280.647 72.866 281.775 72.578V73.82C280.671 74.06 279.621 74.18 278.625 74.18ZM280.497 68.942V67.574C280.497 67.046 280.335 66.686 280.011 66.494C279.699 66.29 279.159 66.188 278.391 66.188C277.647 66.188 277.107 66.29 276.771 66.494C276.435 66.686 276.267 67.046 276.267 67.574V68.942H280.497ZM284.694 65.288H288.51C289.29 65.288 289.914 65.336 290.382 65.432C290.85 65.516 291.192 65.666 291.408 65.882C291.612 66.086 291.744 66.296 291.804 66.512C291.864 66.728 291.894 67.028 291.894 67.412V67.718C291.894 68.186 291.774 68.534 291.534 68.762C291.294 68.99 290.892 69.164 290.328 69.284V69.356C291.72 69.596 292.416 70.202 292.416 71.174V71.696C292.416 72.284 292.296 72.746 292.056 73.082C291.828 73.406 291.444 73.64 290.904 73.784C290.364 73.928 289.608 74 288.636 74H284.694V65.288ZM288.654 68.96C289.134 68.96 289.494 68.924 289.734 68.852C289.974 68.768 290.136 68.642 290.22 68.474C290.304 68.294 290.346 68.024 290.346 67.664V67.556C290.346 67.232 290.298 66.992 290.202 66.836C290.118 66.68 289.95 66.572 289.698 66.512C289.458 66.44 289.092 66.404 288.6 66.404H286.314V68.96H288.654ZM288.726 72.83C289.29 72.83 289.716 72.794 290.004 72.722C290.292 72.65 290.49 72.536 290.598 72.38C290.706 72.212 290.76 71.966 290.76 71.642V71.066C290.76 70.766 290.634 70.514 290.382 70.31C290.118 70.118 289.596 70.022 288.816 70.022H286.314V72.83H288.726ZM296.848 74.18C296.14 74.18 295.324 74.078 294.4 73.874V72.596C295.3 72.86 296.116 72.992 296.848 72.992C297.676 72.992 298.282 72.902 298.666 72.722C299.05 72.53 299.242 72.17 299.242 71.642V71.084C299.242 70.64 299.044 70.346 298.648 70.202C298.264 70.046 297.718 69.968 297.01 69.968H296.02V68.852H296.704C297.436 68.852 297.994 68.768 298.378 68.6C298.762 68.432 298.954 68.132 298.954 67.7V67.16C298.954 66.536 298.234 66.224 296.794 66.224C296.038 66.224 295.3 66.296 294.58 66.44V65.27C295.264 65.162 295.996 65.108 296.776 65.108C297.7 65.108 298.42 65.156 298.936 65.252C299.452 65.348 299.854 65.528 300.142 65.792C300.442 66.056 300.592 66.482 300.592 67.07V67.772C300.592 68.156 300.448 68.474 300.16 68.726C299.884 68.966 299.524 69.122 299.08 69.194V69.266C300.316 69.458 300.934 69.992 300.934 70.868V71.768C300.934 72.176 300.85 72.542 300.682 72.866C300.526 73.178 300.316 73.418 300.052 73.586C299.692 73.814 299.236 73.97 298.684 74.054C298.144 74.138 297.532 74.18 296.848 74.18ZM311.188 65.288V74H309.568V67.574L305.032 74H303.412V65.288H305.032V71.93L309.658 65.288H311.188ZM326.242 62.318V74H324.496V69.554H321.832L319.456 74H317.314L320.104 69.248C319.48 69.128 318.976 68.888 318.592 68.528C318.22 68.168 318.034 67.712 318.034 67.16V64.604C318.034 63.98 318.166 63.506 318.43 63.182C318.694 62.858 319.114 62.636 319.69 62.516C320.278 62.384 321.094 62.318 322.138 62.318H326.242ZM324.496 63.47H322.048C320.536 63.47 319.78 63.908 319.78 64.784V66.944C319.78 67.436 319.96 67.802 320.32 68.042C320.68 68.282 321.31 68.402 322.21 68.402H324.496V63.47ZM329.146 65.288H330.766V69.05C330.946 69.05 331.09 69.014 331.198 68.942C331.318 68.858 331.462 68.732 331.63 68.564L334.654 65.288H336.634L332.674 69.41C332.83 69.446 333.052 69.608 333.34 69.896C333.64 70.184 334.078 70.652 334.654 71.3L337.084 74H335.086L332.71 71.3C332.386 70.928 332.068 70.634 331.756 70.418C331.516 70.262 331.348 70.172 331.252 70.148C331.156 70.112 331.06 70.094 330.964 70.094C330.868 70.094 330.802 70.094 330.766 70.094V74H329.146V65.288ZM340.269 74.126L336.903 65.288H338.667L341.097 72.398H341.133L343.329 65.288H344.967L340.593 77.744H338.901L340.269 74.126ZM350.276 74.18C349.196 74.18 348.38 74.078 347.828 73.874C347.276 73.67 346.892 73.316 346.676 72.812C346.46 72.296 346.352 71.54 346.352 70.544V67.034C346.352 65.762 346.724 64.736 347.468 63.956C348.224 63.164 349.394 62.57 350.978 62.174C352.262 61.814 353.228 61.508 353.876 61.256V62.786C352.952 63.122 351.836 63.464 350.528 63.812C349.796 63.956 349.226 64.13 348.818 64.334C348.41 64.538 348.122 64.784 347.954 65.072C347.798 65.348 347.726 65.696 347.738 66.116V67.25C348.014 66.722 348.41 66.356 348.926 66.152C349.442 65.936 350.108 65.828 350.924 65.828C352.064 65.828 352.898 66.062 353.426 66.53C353.966 66.986 354.236 67.676 354.236 68.6V71.192C354.236 71.972 354.092 72.578 353.804 73.01C353.516 73.442 353.084 73.748 352.508 73.928C351.944 74.096 351.2 74.18 350.276 74.18ZM350.312 73.118C350.948 73.118 351.422 73.076 351.734 72.992C352.058 72.896 352.286 72.722 352.418 72.47C352.562 72.206 352.634 71.81 352.634 71.282V68.618C352.634 68.21 352.574 67.898 352.454 67.682C352.334 67.454 352.124 67.292 351.824 67.196C351.524 67.1 351.098 67.052 350.546 67.052C349.694 67.052 349.04 67.172 348.584 67.412C348.128 67.652 347.906 68 347.918 68.456L347.954 71.282C347.966 71.81 348.038 72.206 348.17 72.47C348.314 72.722 348.548 72.896 348.872 72.992C349.196 73.076 349.676 73.118 350.312 73.118ZM360.399 74.18C359.631 74.18 359.055 74.15 358.671 74.09C358.287 74.042 357.903 73.928 357.519 73.748C357.123 73.568 356.835 73.28 356.655 72.884C356.475 72.476 356.385 71.93 356.385 71.246V68.222C356.385 67.682 356.451 67.208 356.583 66.8C356.715 66.392 356.889 66.074 357.105 65.846C357.285 65.642 357.555 65.486 357.915 65.378C358.287 65.258 358.665 65.18 359.049 65.144C359.481 65.12 359.931 65.108 360.399 65.108C361.023 65.108 361.491 65.126 361.803 65.162C362.127 65.186 362.469 65.246 362.829 65.342C363.201 65.45 363.489 65.612 363.693 65.828C363.897 66.044 364.071 66.356 364.215 66.764C364.347 67.184 364.413 67.67 364.413 68.222V71.246C364.413 72.266 364.179 73.01 363.711 73.478C363.519 73.67 363.243 73.82 362.883 73.928C362.523 74.036 362.151 74.108 361.767 74.144C361.311 74.168 360.855 74.18 360.399 74.18ZM360.399 73.118C360.903 73.118 361.269 73.106 361.497 73.082C361.725 73.058 361.947 72.992 362.163 72.884C362.379 72.788 362.529 72.632 362.613 72.416C362.709 72.188 362.757 71.876 362.757 71.48V67.952C362.757 67.412 362.691 67.022 362.559 66.782C362.427 66.53 362.199 66.368 361.875 66.296C361.563 66.212 361.071 66.17 360.399 66.17C359.727 66.17 359.229 66.212 358.905 66.296C358.593 66.368 358.371 66.53 358.239 66.782C358.107 67.022 358.041 67.412 358.041 67.952V71.48C358.041 71.876 358.083 72.188 358.167 72.416C358.263 72.632 358.419 72.788 358.635 72.884C358.851 72.992 359.073 73.058 359.301 73.082C359.529 73.106 359.895 73.118 360.399 73.118ZM367.047 65.288H370.863C371.643 65.288 372.267 65.336 372.735 65.432C373.203 65.516 373.545 65.666 373.761 65.882C373.965 66.086 374.097 66.296 374.157 66.512C374.217 66.728 374.247 67.028 374.247 67.412V67.718C374.247 68.186 374.127 68.534 373.887 68.762C373.647 68.99 373.245 69.164 372.681 69.284V69.356C374.073 69.596 374.769 70.202 374.769 71.174V71.696C374.769 72.284 374.649 72.746 374.409 73.082C374.181 73.406 373.797 73.64 373.257 73.784C372.717 73.928 371.961 74 370.989 74H367.047V65.288ZM371.007 68.96C371.487 68.96 371.847 68.924 372.087 68.852C372.327 68.768 372.489 68.642 372.573 68.474C372.657 68.294 372.699 68.024 372.699 67.664V67.556C372.699 67.232 372.651 66.992 372.555 66.836C372.471 66.68 372.303 66.572 372.051 66.512C371.811 66.44 371.445 66.404 370.953 66.404H368.667V68.96H371.007ZM371.079 72.83C371.643 72.83 372.069 72.794 372.357 72.722C372.645 72.65 372.843 72.536 372.951 72.38C373.059 72.212 373.113 71.966 373.113 71.642V71.066C373.113 70.766 372.987 70.514 372.735 70.31C372.471 70.118 371.949 70.022 371.169 70.022H368.667V72.83H371.079ZM379.94 74.18C379.112 74.18 378.47 74.102 378.014 73.946C377.57 73.79 377.246 73.514 377.042 73.118C376.85 72.722 376.754 72.152 376.754 71.408C376.754 70.748 376.844 70.238 377.024 69.878C377.216 69.506 377.534 69.242 377.978 69.086C378.434 68.93 379.076 68.852 379.904 68.852H382.514V67.466C382.514 67.142 382.448 66.896 382.316 66.728C382.196 66.548 381.986 66.422 381.686 66.35C381.398 66.278 380.972 66.242 380.408 66.242C379.508 66.242 378.512 66.314 377.42 66.458V65.27C378.608 65.162 379.682 65.108 380.642 65.108C381.65 65.108 382.394 65.186 382.874 65.342C383.354 65.486 383.684 65.744 383.864 66.116C384.044 66.488 384.134 67.064 384.134 67.844V74H382.568V73.172C382.436 73.844 381.56 74.18 379.94 74.18ZM380.21 73.118C380.798 73.118 381.296 73.076 381.704 72.992C382.244 72.884 382.514 72.632 382.514 72.236V69.86H380.012C379.496 69.86 379.124 69.902 378.896 69.986C378.668 70.058 378.518 70.202 378.446 70.418C378.374 70.634 378.338 70.982 378.338 71.462C378.338 71.894 378.38 72.23 378.464 72.47C378.548 72.698 378.698 72.866 378.914 72.974C379.13 73.07 379.454 73.118 379.886 73.118H380.21Z" fill="black"/>
<line x1="78.9913" y1="13.5517" x2="78.9913" y2="74.7414" stroke="#397D92" stroke-width="0.5"/>
</svg>
